<svg width="17" height="17" viewBox="0 0 17 17" fill="none" xmlns="http://www.w3.org/2000/svg">
<path d="M14.4997 5.22045C14.4997 5.22045 14.4997 5.22045 14.4997 5.16378L14.4572 5.05753C14.4424 5.03499 14.4259 5.01367 14.4076 4.99379C14.3887 4.9638 14.3674 4.93537 14.3439 4.90878L14.2801 4.8592L14.1668 4.80254L8.85431 1.52295C8.74173 1.45259 8.61165 1.41528 8.47889 1.41528C8.34614 1.41528 8.21605 1.45259 8.10348 1.52295L2.83348 4.80254L2.76973 4.8592L2.70598 4.90878C2.6825 4.93537 2.66118 4.9638 2.64223 4.99379C2.62402 5.01367 2.60744 5.03499 2.59264 5.05753L2.55014 5.16378C2.55014 5.16378 2.55014 5.16378 2.55014 5.22045C2.54318 5.28164 2.54318 5.34343 2.55014 5.40462V11.5955C2.5499 11.7158 2.58034 11.8343 2.63859 11.9396C2.69684 12.045 2.78098 12.1337 2.88306 12.1975L8.19556 15.4771C8.22826 15.4973 8.26421 15.5117 8.30181 15.5196C8.30181 15.5196 8.33723 15.5196 8.35848 15.5196C8.47831 15.5576 8.60697 15.5576 8.72681 15.5196C8.72681 15.5196 8.76223 15.5196 8.78348 15.5196C8.82108 15.5117 8.85703 15.4973 8.88973 15.4771V15.4771L14.1668 12.1975C14.2689 12.1337 14.353 12.045 14.4113 11.9396C14.4695 11.8343 14.5 11.7158 14.4997 11.5955V5.40462C14.5067 5.34343 14.5067 5.28164 14.4997 5.22045V5.22045ZM7.79181 13.6071L3.89598 11.1988V6.67962L7.79181 9.08087V13.6071ZM8.50014 7.85545L4.53348 5.40462L8.50014 2.96087L12.4668 5.40462L8.50014 7.85545ZM13.1043 11.1988L9.20848 13.6071V9.08087L13.1043 6.67962V11.1988Z" fill="#0F0F0F"/>
</svg>
