<svg width="13" height="15" viewBox="0 0 13 15" fill="none" xmlns="http://www.w3.org/2000/svg">
<path d="M10.7507 0.416626H3.66732C2.91587 0.416626 2.1952 0.715137 1.66385 1.24649C1.1325 1.77784 0.833984 2.49851 0.833984 3.24996V11.75C0.833984 12.5014 1.1325 13.2221 1.66385 13.7534C2.1952 14.2848 2.91587 14.5833 3.66732 14.5833H10.7507C11.1264 14.5833 11.4867 14.434 11.7524 14.1684C12.0181 13.9027 12.1673 13.5423 12.1673 13.1666V1.83329C12.1673 1.45757 12.0181 1.09723 11.7524 0.831558C11.4867 0.565881 11.1264 0.416626 10.7507 0.416626ZM2.25065 3.24996C2.25065 2.87424 2.39991 2.5139 2.66558 2.24822C2.93126 1.98255 3.29159 1.83329 3.66732 1.83329H10.7507V8.91663H3.66732C3.16797 8.91872 2.67848 9.05578 2.25065 9.31329V3.24996ZM3.66732 13.1666C3.29159 13.1666 2.93126 13.0174 2.66558 12.7517C2.39991 12.486 2.25065 12.1257 2.25065 11.75C2.25065 11.3742 2.39991 11.0139 2.66558 10.7482C2.93126 10.4825 3.29159 10.3333 3.66732 10.3333H10.7507V13.1666H3.66732ZM5.08398 4.66663H7.91732C8.10518 4.66663 8.28535 4.592 8.41819 4.45916C8.55102 4.32632 8.62565 4.14615 8.62565 3.95829C8.62565 3.77043 8.55102 3.59026 8.41819 3.45743C8.28535 3.32459 8.10518 3.24996 7.91732 3.24996H5.08398C4.89612 3.24996 4.71596 3.32459 4.58312 3.45743C4.45028 3.59026 4.37565 3.77043 4.37565 3.95829C4.37565 4.14615 4.45028 4.32632 4.58312 4.45916C4.71596 4.592 4.89612 4.66663 5.08398 4.66663V4.66663Z" fill="black"/>
</svg>
