<svg width="1488" height="218" viewBox="0 0 1488 218" fill="none" xmlns="http://www.w3.org/2000/svg">
<path d="M397.206 27.3636V191H358.135V27.3636H397.206ZM465.944 193.317C453.106 193.317 442.027 190.787 432.705 185.727C423.437 180.613 416.299 173.342 411.292 163.914C406.338 154.432 403.861 143.166 403.861 130.116C403.861 117.438 406.364 106.359 411.372 96.8771C416.379 87.3423 423.437 79.9382 432.545 74.6648C441.654 69.3381 452.387 66.6747 464.745 66.6747C473.481 66.6747 481.471 68.033 488.715 70.7496C495.96 73.4663 502.218 77.4879 507.492 82.8146C512.765 88.1413 516.867 94.7198 519.797 102.55C522.726 110.327 524.191 119.249 524.191 129.317V139.065H417.524V116.373H487.836C487.783 112.218 486.798 108.516 484.88 105.267C482.962 102.017 480.326 99.4872 476.97 97.6761C473.667 95.8118 469.859 94.8796 465.544 94.8796C461.176 94.8796 457.261 95.8651 453.799 97.8359C450.336 99.7536 447.593 102.39 445.569 105.746C443.545 109.049 442.479 112.804 442.373 117.012V140.103C442.373 145.11 443.358 149.505 445.329 153.287C447.3 157.016 450.097 159.919 453.719 161.996C457.341 164.074 461.656 165.112 466.663 165.112C470.125 165.112 473.268 164.633 476.091 163.674C478.914 162.715 481.338 161.304 483.362 159.439C485.386 157.575 486.904 155.284 487.916 152.568L523.792 153.607C522.3 161.65 519.024 168.654 513.964 174.62C508.957 180.533 502.378 185.141 494.228 188.443C486.079 191.692 476.65 193.317 465.944 193.317ZM565.243 193.077C557.413 193.077 550.462 191.772 544.389 189.162C538.37 186.499 533.603 182.504 530.087 177.177C526.625 171.797 524.893 165.059 524.893 156.962C524.893 150.144 526.092 144.391 528.489 139.704C530.886 135.016 534.189 131.208 538.397 128.278C542.605 125.348 547.452 123.138 552.939 121.646C558.425 120.102 564.284 119.063 570.517 118.53C577.495 117.891 583.114 117.225 587.376 116.533C591.637 115.787 594.727 114.748 596.644 113.417C598.615 112.032 599.6 110.087 599.6 107.584V107.184C599.6 103.083 598.189 99.9133 595.366 97.6761C592.543 95.4389 588.734 94.3203 583.94 94.3203C578.773 94.3203 574.618 95.4389 571.475 97.6761C568.333 99.9133 566.335 103.003 565.483 106.945L529.448 105.666C530.513 98.2088 533.256 91.5504 537.678 85.691C542.152 79.7784 548.278 75.1442 556.055 71.7883C563.885 68.3793 573.287 66.6747 584.26 66.6747C592.09 66.6747 599.308 67.6069 605.913 69.4712C612.518 71.2823 618.271 73.9457 623.171 77.4613C628.072 80.9236 631.854 85.185 634.517 90.2454C637.234 95.3058 638.592 101.085 638.592 107.584V191H601.838V173.901H600.879C598.695 178.056 595.898 181.572 592.489 184.448C589.134 187.325 585.165 189.482 580.584 190.92C576.056 192.358 570.943 193.077 565.243 193.077ZM577.308 167.509C581.516 167.509 585.298 166.657 588.654 164.952C592.063 163.248 594.78 160.904 596.804 157.921C598.828 154.885 599.84 151.369 599.84 147.374V135.709C598.722 136.295 597.363 136.827 595.765 137.307C594.221 137.786 592.516 138.239 590.652 138.665C588.787 139.091 586.87 139.464 584.899 139.784C582.928 140.103 581.037 140.396 579.226 140.663C575.55 141.249 572.408 142.154 569.798 143.379C567.241 144.604 565.27 146.202 563.885 148.173C562.553 150.091 561.887 152.381 561.887 155.045C561.887 159.093 563.326 162.183 566.202 164.313C569.132 166.444 572.834 167.509 577.308 167.509ZM648.982 191V68.2727H686.935V90.6449H688.213C690.451 82.5483 694.099 76.5291 699.16 72.5874C704.22 68.5923 710.106 66.5948 716.818 66.5948C718.629 66.5948 720.493 66.728 722.411 66.9943C724.328 67.2074 726.113 67.5536 727.764 68.033V101.991C725.9 101.352 723.45 100.846 720.413 100.473C717.43 100.1 714.767 99.9133 712.423 99.9133C707.789 99.9133 703.608 100.952 699.879 103.029C696.203 105.054 693.3 107.903 691.17 111.579C689.092 115.201 688.054 119.462 688.054 124.363V191H648.982ZM769.256 121.007V191H730.184V68.2727H767.338V90.8047H768.696C771.413 83.294 776.047 77.408 782.599 73.1467C789.151 68.832 796.955 66.6747 806.01 66.6747C814.639 66.6747 822.123 68.619 828.462 72.5074C834.854 76.3427 839.808 81.7226 843.324 88.6474C846.892 95.5188 848.65 103.562 848.597 112.777V191H809.526V120.448C809.579 113.63 807.848 108.303 804.332 104.468C800.87 100.632 796.049 98.7148 789.87 98.7148C785.769 98.7148 782.146 99.6204 779.004 101.431C775.914 103.189 773.517 105.719 771.813 109.022C770.161 112.325 769.309 116.32 769.256 121.007ZM898.358 121.007V191H859.287V27.3636H897.08V90.8047H898.438C901.208 83.2408 905.736 77.3281 912.021 73.0668C918.36 68.8054 926.11 66.6747 935.272 66.6747C943.902 66.6747 951.412 68.5923 957.804 72.4276C964.196 76.2095 969.15 81.5629 972.666 88.4876C976.235 95.4123 977.993 103.509 977.939 112.777V191H938.868V120.448C938.921 113.63 937.217 108.303 933.754 104.468C930.292 100.632 925.418 98.7148 919.132 98.7148C915.031 98.7148 911.409 99.6204 908.266 101.431C905.176 103.189 902.753 105.719 900.995 109.022C899.29 112.325 898.412 116.32 898.358 121.007ZM1046.12 193.317C1033.23 193.317 1022.15 190.68 1012.88 185.407C1003.66 180.08 996.553 172.676 991.546 163.195C986.592 153.66 984.115 142.607 984.115 130.036C984.115 117.412 986.592 106.359 991.546 96.8771C996.553 87.3423 1003.66 79.9382 1012.88 74.6648C1022.15 69.3381 1033.23 66.6747 1046.12 66.6747C1059.01 66.6747 1070.06 69.3381 1079.28 74.6648C1088.54 79.9382 1095.66 87.3423 1100.61 96.8771C1105.62 106.359 1108.12 117.412 1108.12 130.036C1108.12 142.607 1105.62 153.66 1100.61 163.195C1095.66 172.676 1088.54 180.08 1079.28 185.407C1070.06 190.68 1059.01 193.317 1046.12 193.317ZM1046.36 163.834C1051.04 163.834 1055.01 162.396 1058.26 159.519C1061.51 156.643 1063.99 152.648 1065.69 147.534C1067.45 142.42 1068.33 136.508 1068.33 129.796C1068.33 122.978 1067.45 117.012 1065.69 111.898C1063.99 106.785 1061.51 102.79 1058.26 99.9133C1055.01 97.0369 1051.04 95.5987 1046.36 95.5987C1041.51 95.5987 1037.41 97.0369 1034.05 99.9133C1030.75 102.79 1028.22 106.785 1026.46 111.898C1024.76 117.012 1023.91 122.978 1023.91 129.796C1023.91 136.508 1024.76 142.42 1026.46 147.534C1028.22 152.648 1030.75 156.643 1034.05 159.519C1037.41 162.396 1041.51 163.834 1046.36 163.834ZM1193.82 138.026V68.2727H1232.81V191H1195.57V168.148H1194.3C1191.58 175.659 1186.95 181.625 1180.39 186.046C1173.9 190.414 1166.04 192.598 1156.82 192.598C1148.46 192.598 1141.11 190.68 1134.77 186.845C1128.43 183.01 1123.5 177.657 1119.99 170.785C1116.47 163.86 1114.69 155.764 1114.64 146.495V68.2727H1153.71V138.825C1153.76 145.483 1155.52 150.73 1158.98 154.565C1162.44 158.401 1167.16 160.318 1173.12 160.318C1177.01 160.318 1180.5 159.466 1183.59 157.761C1186.73 156.004 1189.21 153.473 1191.02 150.171C1192.88 146.815 1193.82 142.767 1193.82 138.026ZM1351.32 105.746L1315.45 106.705C1315.08 104.148 1314.06 101.884 1312.41 99.9133C1310.76 97.8892 1308.6 96.3178 1305.94 95.1992C1303.33 94.0273 1300.29 93.4414 1296.83 93.4414C1292.3 93.4414 1288.44 94.3469 1285.25 96.158C1282.1 97.9691 1280.56 100.419 1280.61 103.509C1280.56 105.906 1281.52 107.983 1283.49 109.741C1285.51 111.499 1289.11 112.911 1294.28 113.976L1317.93 118.45C1330.18 120.794 1339.29 124.683 1345.25 130.116C1351.27 135.549 1354.31 142.74 1354.36 151.689C1354.31 160.105 1351.8 167.429 1346.85 173.662C1341.95 179.894 1335.24 184.741 1326.71 188.203C1318.19 191.613 1308.44 193.317 1297.47 193.317C1279.95 193.317 1266.12 189.722 1256 182.531C1245.94 175.286 1240.18 165.592 1238.74 153.447L1277.34 152.488C1278.19 156.962 1280.4 160.371 1283.97 162.715C1287.54 165.059 1292.09 166.231 1297.63 166.231C1302.64 166.231 1306.71 165.299 1309.86 163.434C1313 161.57 1314.6 159.093 1314.65 156.004C1314.6 153.234 1313.37 151.023 1310.97 149.372C1308.58 147.667 1304.82 146.336 1299.71 145.377L1278.3 141.302C1265.99 139.065 1256.83 134.936 1250.81 128.917C1244.79 122.845 1241.81 115.121 1241.86 105.746C1241.81 97.543 1243.99 90.5384 1248.41 84.7322C1252.83 78.8729 1259.12 74.3984 1267.27 71.3089C1275.42 68.2195 1285.03 66.6747 1296.11 66.6747C1312.73 66.6747 1325.84 70.1637 1335.42 77.1417C1345.01 84.0664 1350.31 93.6012 1351.32 105.746ZM1417.47 193.317C1404.63 193.317 1393.55 190.787 1384.23 185.727C1374.96 180.613 1367.82 173.342 1362.81 163.914C1357.86 154.432 1355.38 143.166 1355.38 130.116C1355.38 117.438 1357.89 106.359 1362.89 96.8771C1367.9 87.3423 1374.96 79.9382 1384.07 74.6648C1393.18 69.3381 1403.91 66.6747 1416.27 66.6747C1425 66.6747 1432.99 68.033 1440.24 70.7496C1447.48 73.4663 1453.74 77.4879 1459.01 82.8146C1464.29 88.1413 1468.39 94.7198 1471.32 102.55C1474.25 110.327 1475.71 119.249 1475.71 129.317V139.065H1369.05V116.373H1439.36C1439.3 112.218 1438.32 108.516 1436.4 105.267C1434.48 102.017 1431.85 99.4872 1428.49 97.6761C1425.19 95.8118 1421.38 94.8796 1417.07 94.8796C1412.7 94.8796 1408.78 95.8651 1405.32 97.8359C1401.86 99.7536 1399.11 102.39 1397.09 105.746C1395.07 109.049 1394 112.804 1393.89 117.012V140.103C1393.89 145.11 1394.88 149.505 1396.85 153.287C1398.82 157.016 1401.62 159.919 1405.24 161.996C1408.86 164.074 1413.18 165.112 1418.18 165.112C1421.65 165.112 1424.79 164.633 1427.61 163.674C1430.44 162.715 1432.86 161.304 1434.88 159.439C1436.91 157.575 1438.43 155.284 1439.44 152.568L1475.31 153.607C1473.82 161.65 1470.55 168.654 1465.49 174.62C1460.48 180.533 1453.9 185.141 1445.75 188.443C1437.6 191.692 1428.17 193.317 1417.47 193.317Z" fill="url(#paint0_linear_4258_142)"/>
<path d="M397.206 27.3636V191H358.135V27.3636H397.206ZM465.944 193.317C453.106 193.317 442.027 190.787 432.705 185.727C423.437 180.613 416.299 173.342 411.292 163.914C406.338 154.432 403.861 143.166 403.861 130.116C403.861 117.438 406.364 106.359 411.372 96.8771C416.379 87.3423 423.437 79.9382 432.545 74.6648C441.654 69.3381 452.387 66.6747 464.745 66.6747C473.481 66.6747 481.471 68.033 488.715 70.7496C495.96 73.4663 502.218 77.4879 507.492 82.8146C512.765 88.1413 516.867 94.7198 519.797 102.55C522.726 110.327 524.191 119.249 524.191 129.317V139.065H417.524V116.373H487.836C487.783 112.218 486.798 108.516 484.88 105.267C482.962 102.017 480.326 99.4872 476.97 97.6761C473.667 95.8118 469.859 94.8796 465.544 94.8796C461.176 94.8796 457.261 95.8651 453.799 97.8359C450.336 99.7536 447.593 102.39 445.569 105.746C443.545 109.049 442.479 112.804 442.373 117.012V140.103C442.373 145.11 443.358 149.505 445.329 153.287C447.3 157.016 450.097 159.919 453.719 161.996C457.341 164.074 461.656 165.112 466.663 165.112C470.125 165.112 473.268 164.633 476.091 163.674C478.914 162.715 481.338 161.304 483.362 159.439C485.386 157.575 486.904 155.284 487.916 152.568L523.792 153.607C522.3 161.65 519.024 168.654 513.964 174.62C508.957 180.533 502.378 185.141 494.228 188.443C486.079 191.692 476.65 193.317 465.944 193.317ZM565.243 193.077C557.413 193.077 550.462 191.772 544.389 189.162C538.37 186.499 533.603 182.504 530.087 177.177C526.625 171.797 524.893 165.059 524.893 156.962C524.893 150.144 526.092 144.391 528.489 139.704C530.886 135.016 534.189 131.208 538.397 128.278C542.605 125.348 547.452 123.138 552.939 121.646C558.425 120.102 564.284 119.063 570.517 118.53C577.495 117.891 583.114 117.225 587.376 116.533C591.637 115.787 594.727 114.748 596.644 113.417C598.615 112.032 599.6 110.087 599.6 107.584V107.184C599.6 103.083 598.189 99.9133 595.366 97.6761C592.543 95.4389 588.734 94.3203 583.94 94.3203C578.773 94.3203 574.618 95.4389 571.475 97.6761C568.333 99.9133 566.335 103.003 565.483 106.945L529.448 105.666C530.513 98.2088 533.256 91.5504 537.678 85.691C542.152 79.7784 548.278 75.1442 556.055 71.7883C563.885 68.3793 573.287 66.6747 584.26 66.6747C592.09 66.6747 599.308 67.6069 605.913 69.4712C612.518 71.2823 618.271 73.9457 623.171 77.4613C628.072 80.9236 631.854 85.185 634.517 90.2454C637.234 95.3058 638.592 101.085 638.592 107.584V191H601.838V173.901H600.879C598.695 178.056 595.898 181.572 592.489 184.448C589.134 187.325 585.165 189.482 580.584 190.92C576.056 192.358 570.943 193.077 565.243 193.077ZM577.308 167.509C581.516 167.509 585.298 166.657 588.654 164.952C592.063 163.248 594.78 160.904 596.804 157.921C598.828 154.885 599.84 151.369 599.84 147.374V135.709C598.722 136.295 597.363 136.827 595.765 137.307C594.221 137.786 592.516 138.239 590.652 138.665C588.787 139.091 586.87 139.464 584.899 139.784C582.928 140.103 581.037 140.396 579.226 140.663C575.55 141.249 572.408 142.154 569.798 143.379C567.241 144.604 565.27 146.202 563.885 148.173C562.553 150.091 561.887 152.381 561.887 155.045C561.887 159.093 563.326 162.183 566.202 164.313C569.132 166.444 572.834 167.509 577.308 167.509ZM648.982 191V68.2727H686.935V90.6449H688.213C690.451 82.5483 694.099 76.5291 699.16 72.5874C704.22 68.5923 710.106 66.5948 716.818 66.5948C718.629 66.5948 720.493 66.728 722.411 66.9943C724.328 67.2074 726.113 67.5536 727.764 68.033V101.991C725.9 101.352 723.45 100.846 720.413 100.473C717.43 100.1 714.767 99.9133 712.423 99.9133C707.789 99.9133 703.608 100.952 699.879 103.029C696.203 105.054 693.3 107.903 691.17 111.579C689.092 115.201 688.054 119.462 688.054 124.363V191H648.982ZM769.256 121.007V191H730.184V68.2727H767.338V90.8047H768.696C771.413 83.294 776.047 77.408 782.599 73.1467C789.151 68.832 796.955 66.6747 806.01 66.6747C814.639 66.6747 822.123 68.619 828.462 72.5074C834.854 76.3427 839.808 81.7226 843.324 88.6474C846.892 95.5188 848.65 103.562 848.597 112.777V191H809.526V120.448C809.579 113.63 807.848 108.303 804.332 104.468C800.87 100.632 796.049 98.7148 789.87 98.7148C785.769 98.7148 782.146 99.6204 779.004 101.431C775.914 103.189 773.517 105.719 771.813 109.022C770.161 112.325 769.309 116.32 769.256 121.007ZM898.358 121.007V191H859.287V27.3636H897.08V90.8047H898.438C901.208 83.2408 905.736 77.3281 912.021 73.0668C918.36 68.8054 926.11 66.6747 935.272 66.6747C943.902 66.6747 951.412 68.5923 957.804 72.4276C964.196 76.2095 969.15 81.5629 972.666 88.4876C976.235 95.4123 977.993 103.509 977.939 112.777V191H938.868V120.448C938.921 113.63 937.217 108.303 933.754 104.468C930.292 100.632 925.418 98.7148 919.132 98.7148C915.031 98.7148 911.409 99.6204 908.266 101.431C905.176 103.189 902.753 105.719 900.995 109.022C899.29 112.325 898.412 116.32 898.358 121.007ZM1046.12 193.317C1033.23 193.317 1022.15 190.68 1012.88 185.407C1003.66 180.08 996.553 172.676 991.546 163.195C986.592 153.66 984.115 142.607 984.115 130.036C984.115 117.412 986.592 106.359 991.546 96.8771C996.553 87.3423 1003.66 79.9382 1012.88 74.6648C1022.15 69.3381 1033.23 66.6747 1046.12 66.6747C1059.01 66.6747 1070.06 69.3381 1079.28 74.6648C1088.54 79.9382 1095.66 87.3423 1100.61 96.8771C1105.62 106.359 1108.12 117.412 1108.12 130.036C1108.12 142.607 1105.62 153.66 1100.61 163.195C1095.66 172.676 1088.54 180.08 1079.28 185.407C1070.06 190.68 1059.01 193.317 1046.12 193.317ZM1046.36 163.834C1051.04 163.834 1055.01 162.396 1058.26 159.519C1061.51 156.643 1063.99 152.648 1065.69 147.534C1067.45 142.42 1068.33 136.508 1068.33 129.796C1068.33 122.978 1067.45 117.012 1065.69 111.898C1063.99 106.785 1061.51 102.79 1058.26 99.9133C1055.01 97.0369 1051.04 95.5987 1046.36 95.5987C1041.51 95.5987 1037.41 97.0369 1034.05 99.9133C1030.75 102.79 1028.22 106.785 1026.46 111.898C1024.76 117.012 1023.91 122.978 1023.91 129.796C1023.91 136.508 1024.76 142.42 1026.46 147.534C1028.22 152.648 1030.75 156.643 1034.05 159.519C1037.41 162.396 1041.51 163.834 1046.36 163.834ZM1193.82 138.026V68.2727H1232.81V191H1195.57V168.148H1194.3C1191.58 175.659 1186.95 181.625 1180.39 186.046C1173.9 190.414 1166.04 192.598 1156.82 192.598C1148.46 192.598 1141.11 190.68 1134.77 186.845C1128.43 183.01 1123.5 177.657 1119.99 170.785C1116.47 163.86 1114.69 155.764 1114.64 146.495V68.2727H1153.71V138.825C1153.76 145.483 1155.52 150.73 1158.98 154.565C1162.44 158.401 1167.16 160.318 1173.12 160.318C1177.01 160.318 1180.5 159.466 1183.59 157.761C1186.73 156.004 1189.21 153.473 1191.02 150.171C1192.88 146.815 1193.82 142.767 1193.82 138.026ZM1351.32 105.746L1315.45 106.705C1315.08 104.148 1314.06 101.884 1312.41 99.9133C1310.76 97.8892 1308.6 96.3178 1305.94 95.1992C1303.33 94.0273 1300.29 93.4414 1296.83 93.4414C1292.3 93.4414 1288.44 94.3469 1285.25 96.158C1282.1 97.9691 1280.56 100.419 1280.61 103.509C1280.56 105.906 1281.52 107.983 1283.49 109.741C1285.51 111.499 1289.11 112.911 1294.28 113.976L1317.93 118.45C1330.18 120.794 1339.29 124.683 1345.25 130.116C1351.27 135.549 1354.31 142.74 1354.36 151.689C1354.31 160.105 1351.8 167.429 1346.85 173.662C1341.95 179.894 1335.24 184.741 1326.71 188.203C1318.19 191.613 1308.44 193.317 1297.47 193.317C1279.95 193.317 1266.12 189.722 1256 182.531C1245.94 175.286 1240.18 165.592 1238.74 153.447L1277.34 152.488C1278.19 156.962 1280.4 160.371 1283.97 162.715C1287.54 165.059 1292.09 166.231 1297.63 166.231C1302.64 166.231 1306.71 165.299 1309.86 163.434C1313 161.57 1314.6 159.093 1314.65 156.004C1314.6 153.234 1313.37 151.023 1310.97 149.372C1308.58 147.667 1304.82 146.336 1299.71 145.377L1278.3 141.302C1265.99 139.065 1256.83 134.936 1250.81 128.917C1244.79 122.845 1241.81 115.121 1241.86 105.746C1241.81 97.543 1243.99 90.5384 1248.41 84.7322C1252.83 78.8729 1259.12 74.3984 1267.27 71.3089C1275.42 68.2195 1285.03 66.6747 1296.11 66.6747C1312.73 66.6747 1325.84 70.1637 1335.42 77.1417C1345.01 84.0664 1350.31 93.6012 1351.32 105.746ZM1417.47 193.317C1404.63 193.317 1393.55 190.787 1384.23 185.727C1374.96 180.613 1367.82 173.342 1362.81 163.914C1357.86 154.432 1355.38 143.166 1355.38 130.116C1355.38 117.438 1357.89 106.359 1362.89 96.8771C1367.9 87.3423 1374.96 79.9382 1384.07 74.6648C1393.18 69.3381 1403.91 66.6747 1416.27 66.6747C1425 66.6747 1432.99 68.033 1440.24 70.7496C1447.48 73.4663 1453.74 77.4879 1459.01 82.8146C1464.29 88.1413 1468.39 94.7198 1471.32 102.55C1474.25 110.327 1475.71 119.249 1475.71 129.317V139.065H1369.05V116.373H1439.36C1439.3 112.218 1438.32 108.516 1436.4 105.267C1434.48 102.017 1431.85 99.4872 1428.49 97.6761C1425.19 95.8118 1421.38 94.8796 1417.07 94.8796C1412.7 94.8796 1408.78 95.8651 1405.32 97.8359C1401.86 99.7536 1399.11 102.39 1397.09 105.746C1395.07 109.049 1394 112.804 1393.89 117.012V140.103C1393.89 145.11 1394.88 149.505 1396.85 153.287C1398.82 157.016 1401.62 159.919 1405.24 161.996C1408.86 164.074 1413.18 165.112 1418.18 165.112C1421.65 165.112 1424.79 164.633 1427.61 163.674C1430.44 162.715 1432.86 161.304 1434.88 159.439C1436.91 157.575 1438.43 155.284 1439.44 152.568L1475.31 153.607C1473.82 161.65 1470.55 168.654 1465.49 174.62C1460.48 180.533 1453.9 185.141 1445.75 188.443C1437.6 191.692 1428.17 193.317 1417.47 193.317Z" fill="black"/>
<path d="M152 37C152 56.9609 148.068 76.7264 140.43 95.1679C132.791 113.609 121.595 130.366 107.48 144.48C93.3657 158.595 76.6094 169.791 58.1679 177.43C39.7264 185.068 19.9609 189 0 189L3.19349e-06 115.941C10.3667 115.941 20.632 113.9 30.2096 109.932C39.7872 105.965 48.4896 100.15 55.82 92.82C63.1504 85.4896 68.9652 76.7872 72.9324 67.2096C76.8996 57.632 78.9414 47.3667 78.9414 37H152Z" fill="black"/>
<path d="M304 189C284.039 189 264.274 185.068 245.832 177.43C227.391 169.791 210.634 158.595 196.52 144.48C182.405 130.366 171.209 113.609 163.57 95.1679C155.932 76.7264 152 56.9609 152 37L225.059 37C225.059 47.3667 227.1 57.632 231.068 67.2096C235.035 76.7872 240.85 85.4896 248.18 92.82C255.51 100.15 264.213 105.965 273.79 109.932C283.368 113.9 293.633 115.941 304 115.941V189Z" fill="black"/>
<defs>
<linearGradient id="paint0_linear_4258_142" x1="887.596" y1="-88.6374" x2="1031.77" y2="737.621" gradientUnits="userSpaceOnUse">
<stop/>
<stop offset="1" stop-color="#999999"/>
</linearGradient>
</defs>
</svg>
