<svg width="304" height="152" viewBox="0 0 304 152" fill="none" xmlns="http://www.w3.org/2000/svg">
<path d="M152 1.28612e-05C152 19.9609 148.068 39.7264 140.43 58.1679C132.791 76.6094 121.595 93.3657 107.48 107.48C93.3657 121.595 76.6094 132.791 58.1679 140.43C39.7264 148.068 19.9609 152 0 152L3.19349e-06 78.9414C10.3667 78.9415 20.632 76.8996 30.2096 72.9324C39.7872 68.9652 48.4896 63.1504 55.82 55.82C63.1504 48.4896 68.9652 39.7872 72.9324 30.2096C76.8996 20.632 78.9414 10.3667 78.9414 1.28612e-05H152Z" fill="black"/>
<path d="M304 152C284.039 152 264.274 148.068 245.832 140.43C227.391 132.791 210.634 121.595 196.52 107.48C182.405 93.3657 171.209 76.6094 163.57 58.1679C155.932 39.7264 152 19.9609 152 1.28612e-05L225.059 0C225.059 10.3667 227.1 20.632 231.068 30.2096C235.035 39.7872 240.85 48.4896 248.18 55.82C255.51 63.1504 264.213 68.9652 273.79 72.9324C283.368 76.8996 293.633 78.9414 304 78.9414V152Z" fill="black"/>
</svg>
