<svg width="20" height="20" viewBox="0 0 20 20" fill="none" xmlns="http://www.w3.org/2000/svg">
    <path
        d="M16.5751 7.95841C16.5059 7.82098 16.3999 7.70541 16.269 7.62451C16.1381 7.54361 15.9874 7.50054 15.8335 7.50008H11.6668V2.50008C11.6757 2.31731 11.6243 2.13669 11.5204 1.98608C11.4164 1.83547 11.2658 1.72325 11.0918 1.66674C10.9245 1.6117 10.744 1.61108 10.5763 1.66498C10.4087 1.71888 10.2624 1.82452 10.1585 1.96674L3.4918 11.1334C3.40827 11.2541 3.35811 11.3948 3.3464 11.5411C3.3347 11.6874 3.36186 11.8343 3.42513 11.9667C3.4834 12.1182 3.58462 12.2493 3.71637 12.3441C3.84812 12.4388 4.00467 12.493 4.1668 12.5001H8.33346V17.5001C8.33359 17.6758 8.38927 17.847 8.49254 17.9892C8.59581 18.1314 8.74139 18.2373 8.90846 18.2917C8.99219 18.3177 9.07915 18.3317 9.1668 18.3334C9.29828 18.3338 9.42799 18.303 9.5453 18.2436C9.66262 18.1842 9.76422 18.0979 9.8418 17.9917L16.5085 8.82508C16.5982 8.70074 16.652 8.55404 16.6637 8.40112C16.6755 8.24821 16.6448 8.09502 16.5751 7.95841ZM10.0001 14.9334V11.6667C10.0001 11.4457 9.91233 11.2338 9.75605 11.0775C9.59977 10.9212 9.38781 10.8334 9.1668 10.8334H5.83346L10.0001 5.06674V8.33341C10.0001 8.55442 10.0879 8.76638 10.2442 8.92267C10.4005 9.07895 10.6124 9.16674 10.8335 9.16674H14.1668L10.0001 14.9334Z"
        fill="black" />
</svg>